<mxfile host="app.diagrams.net" modified="2024-02-29T19:46:50.908Z" agent="Mozilla/5.0 (X11; Linux x86_64) AppleWebKit/537.36 (KHTML, like Gecko) Chrome/122.0.0.0 Safari/537.36" etag="bXK3ou15epzrt_2ygBM1" version="23.1.8" type="github">
  <diagram name="Page-1" id="AWUMhM5HRCGWLdfMc1d9">
    <mxGraphModel dx="1176" dy="630" grid="1" gridSize="10" guides="1" tooltips="1" connect="1" arrows="1" fold="1" page="1" pageScale="1" pageWidth="850" pageHeight="1100" math="0" shadow="0">
      <root>
        <mxCell id="0" />
        <mxCell id="1" parent="0" />
        <mxCell id="7S9XfjntvtMMdYPAHYrr-1" value="Neo4j Graph DB" style="shape=umlLifeline;perimeter=lifelinePerimeter;whiteSpace=wrap;html=1;container=1;dropTarget=0;collapsible=0;recursiveResize=0;outlineConnect=0;portConstraint=eastwest;newEdgeStyle={&quot;curved&quot;:0,&quot;rounded&quot;:0};" parent="1" vertex="1">
          <mxGeometry x="652" y="5" width="130" height="310" as="geometry" />
        </mxCell>
        <mxCell id="idhhOFDxXZSViwt3V-x8-15" value="" style="html=1;points=[[0,0,0,0,5],[0,1,0,0,-5],[1,0,0,0,5],[1,1,0,0,-5]];perimeter=orthogonalPerimeter;outlineConnect=0;targetShapes=umlLifeline;portConstraint=eastwest;newEdgeStyle={&quot;curved&quot;:0,&quot;rounded&quot;:0};" vertex="1" parent="7S9XfjntvtMMdYPAHYrr-1">
          <mxGeometry x="60" y="212" width="10" height="40" as="geometry" />
        </mxCell>
        <mxCell id="7S9XfjntvtMMdYPAHYrr-3" value="EBL Coords" style="shape=umlLifeline;perimeter=lifelinePerimeter;whiteSpace=wrap;html=1;container=1;dropTarget=0;collapsible=0;recursiveResize=0;outlineConnect=0;portConstraint=eastwest;newEdgeStyle={&quot;curved&quot;:0,&quot;rounded&quot;:0};" parent="1" vertex="1">
          <mxGeometry x="285" y="5" width="100" height="310" as="geometry" />
        </mxCell>
        <mxCell id="idhhOFDxXZSViwt3V-x8-5" value="" style="html=1;points=[[0,0,0,0,5],[0,1,0,0,-5],[1,0,0,0,5],[1,1,0,0,-5]];perimeter=orthogonalPerimeter;outlineConnect=0;targetShapes=umlLifeline;portConstraint=eastwest;newEdgeStyle={&quot;curved&quot;:0,&quot;rounded&quot;:0};" vertex="1" parent="7S9XfjntvtMMdYPAHYrr-3">
          <mxGeometry x="45" y="90" width="10" height="200" as="geometry" />
        </mxCell>
        <mxCell id="7S9XfjntvtMMdYPAHYrr-14" value="Frontend" style="shape=umlLifeline;perimeter=lifelinePerimeter;whiteSpace=wrap;html=1;container=1;dropTarget=0;collapsible=0;recursiveResize=0;outlineConnect=0;portConstraint=eastwest;newEdgeStyle={&quot;curved&quot;:0,&quot;rounded&quot;:0};" parent="1" vertex="1">
          <mxGeometry x="140" y="5" width="100" height="310" as="geometry" />
        </mxCell>
        <mxCell id="idhhOFDxXZSViwt3V-x8-18" value="" style="html=1;points=[[0,0,0,0,5],[0,1,0,0,-5],[1,0,0,0,5],[1,1,0,0,-5]];perimeter=orthogonalPerimeter;outlineConnect=0;targetShapes=umlLifeline;portConstraint=eastwest;newEdgeStyle={&quot;curved&quot;:0,&quot;rounded&quot;:0};" vertex="1" parent="7S9XfjntvtMMdYPAHYrr-14">
          <mxGeometry x="45" y="274" width="10" height="20" as="geometry" />
        </mxCell>
        <mxCell id="7S9XfjntvtMMdYPAHYrr-21" value="Betriebsanlage" style="shape=umlLifeline;perimeter=lifelinePerimeter;whiteSpace=wrap;html=1;container=1;dropTarget=0;collapsible=0;recursiveResize=0;outlineConnect=0;portConstraint=eastwest;newEdgeStyle={&quot;curved&quot;:0,&quot;rounded&quot;:0};" parent="1" vertex="1">
          <mxGeometry x="10" y="5" width="120" height="310" as="geometry" />
        </mxCell>
        <mxCell id="idhhOFDxXZSViwt3V-x8-1" value="" style="html=1;points=[[0,0,0,0,5],[0,1,0,0,-5],[1,0,0,0,5],[1,1,0,0,-5]];perimeter=orthogonalPerimeter;outlineConnect=0;targetShapes=umlLifeline;portConstraint=eastwest;newEdgeStyle={&quot;curved&quot;:0,&quot;rounded&quot;:0};" vertex="1" parent="7S9XfjntvtMMdYPAHYrr-21">
          <mxGeometry x="55" y="90" width="10" height="20" as="geometry" />
        </mxCell>
        <mxCell id="idhhOFDxXZSViwt3V-x8-2" value="Zug fÃ¤hrt" style="html=1;align=left;spacingLeft=2;endArrow=block;rounded=0;edgeStyle=orthogonalEdgeStyle;curved=0;rounded=0;" edge="1" target="idhhOFDxXZSViwt3V-x8-1" parent="7S9XfjntvtMMdYPAHYrr-21">
          <mxGeometry x="-0.2632" y="-10" relative="1" as="geometry">
            <mxPoint x="90" y="65" as="sourcePoint" />
            <Array as="points">
              <mxPoint x="110" y="65" />
              <mxPoint x="110" y="95" />
            </Array>
            <mxPoint as="offset" />
          </mxGeometry>
        </mxCell>
        <mxCell id="7S9XfjntvtMMdYPAHYrr-22" value="GTCommand" style="shape=umlLifeline;perimeter=lifelinePerimeter;whiteSpace=wrap;html=1;container=1;dropTarget=0;collapsible=0;recursiveResize=0;outlineConnect=0;portConstraint=eastwest;newEdgeStyle={&quot;curved&quot;:0,&quot;rounded&quot;:0};" parent="1" vertex="1">
          <mxGeometry x="395" y="5" width="140" height="310" as="geometry" />
        </mxCell>
        <mxCell id="idhhOFDxXZSViwt3V-x8-3" value="" style="html=1;points=[[0,0,0,0,5],[0,1,0,0,-5],[1,0,0,0,5],[1,1,0,0,-5]];perimeter=orthogonalPerimeter;outlineConnect=0;targetShapes=umlLifeline;portConstraint=eastwest;newEdgeStyle={&quot;curved&quot;:0,&quot;rounded&quot;:0};" vertex="1" parent="7S9XfjntvtMMdYPAHYrr-22">
          <mxGeometry x="65" y="95" width="10" height="35" as="geometry" />
        </mxCell>
        <mxCell id="idhhOFDxXZSViwt3V-x8-4" value="Koordinaten messen" style="html=1;align=left;spacingLeft=2;endArrow=block;rounded=0;edgeStyle=orthogonalEdgeStyle;curved=0;rounded=0;" edge="1" target="idhhOFDxXZSViwt3V-x8-3" parent="7S9XfjntvtMMdYPAHYrr-22">
          <mxGeometry x="-0.7778" y="-10" relative="1" as="geometry">
            <mxPoint x="80" y="70" as="sourcePoint" />
            <Array as="points">
              <mxPoint x="100" y="70" />
              <mxPoint x="100" y="105" />
            </Array>
            <mxPoint as="offset" />
          </mxGeometry>
        </mxCell>
        <mxCell id="idhhOFDxXZSViwt3V-x8-6" value="punkte aufzeichnen" style="html=1;verticalAlign=bottom;endArrow=block;curved=0;rounded=0;" edge="1" parent="1" source="idhhOFDxXZSViwt3V-x8-5" target="idhhOFDxXZSViwt3V-x8-3">
          <mxGeometry width="80" relative="1" as="geometry">
            <mxPoint x="355" y="105" as="sourcePoint" />
            <mxPoint x="465" y="110" as="targetPoint" />
            <Array as="points">
              <mxPoint x="405" y="105" />
            </Array>
          </mxGeometry>
        </mxCell>
        <mxCell id="idhhOFDxXZSViwt3V-x8-7" value="Koordinaten" style="html=1;verticalAlign=bottom;endArrow=open;dashed=1;endSize=8;curved=0;rounded=0;" edge="1" parent="1">
          <mxGeometry relative="1" as="geometry">
            <mxPoint x="460" y="129" as="sourcePoint" />
            <mxPoint x="340" y="129" as="targetPoint" />
            <Array as="points">
              <mxPoint x="395" y="129" />
            </Array>
          </mxGeometry>
        </mxCell>
        <mxCell id="idhhOFDxXZSViwt3V-x8-11" value="ECoS" style="shape=umlLifeline;perimeter=lifelinePerimeter;whiteSpace=wrap;html=1;container=1;dropTarget=0;collapsible=0;recursiveResize=0;outlineConnect=0;portConstraint=eastwest;newEdgeStyle={&quot;curved&quot;:0,&quot;rounded&quot;:0};" vertex="1" parent="1">
          <mxGeometry x="545" y="5" width="100" height="305" as="geometry" />
        </mxCell>
        <mxCell id="idhhOFDxXZSViwt3V-x8-12" value="" style="html=1;points=[[0,0,0,0,5],[0,1,0,0,-5],[1,0,0,0,5],[1,1,0,0,-5]];perimeter=orthogonalPerimeter;outlineConnect=0;targetShapes=umlLifeline;portConstraint=eastwest;newEdgeStyle={&quot;curved&quot;:0,&quot;rounded&quot;:0};" vertex="1" parent="idhhOFDxXZSViwt3V-x8-11">
          <mxGeometry x="45" y="150" width="10" height="40" as="geometry" />
        </mxCell>
        <mxCell id="idhhOFDxXZSViwt3V-x8-14" value="Weichenstellung" style="html=1;verticalAlign=bottom;endArrow=open;dashed=1;endSize=8;curved=0;rounded=0;exitX=0;exitY=1;exitDx=0;exitDy=-5;" edge="1" source="idhhOFDxXZSViwt3V-x8-12" parent="1" target="idhhOFDxXZSViwt3V-x8-5">
          <mxGeometry relative="1" as="geometry">
            <mxPoint x="520" y="230" as="targetPoint" />
          </mxGeometry>
        </mxCell>
        <mxCell id="idhhOFDxXZSViwt3V-x8-13" value="Weichenstellung abfragen" style="html=1;verticalAlign=bottom;endArrow=block;curved=0;rounded=0;" edge="1" parent="1">
          <mxGeometry relative="1" as="geometry">
            <mxPoint x="340" y="160" as="sourcePoint" />
            <mxPoint x="590" y="160" as="targetPoint" />
          </mxGeometry>
        </mxCell>
        <mxCell id="idhhOFDxXZSViwt3V-x8-17" value="Zu fahrende Strecke" style="html=1;verticalAlign=bottom;endArrow=open;dashed=1;endSize=8;curved=0;rounded=0;" edge="1" parent="1">
          <mxGeometry relative="1" as="geometry">
            <mxPoint x="340" y="252" as="targetPoint" />
            <mxPoint x="725" y="252" as="sourcePoint" />
          </mxGeometry>
        </mxCell>
        <mxCell id="idhhOFDxXZSViwt3V-x8-16" value="Zu abfahrende Strecke abfragen" style="html=1;verticalAlign=bottom;endArrow=block;curved=0;rounded=0;" edge="1" parent="1">
          <mxGeometry relative="1" as="geometry">
            <mxPoint x="340" y="222" as="sourcePoint" />
            <mxPoint x="725" y="222" as="targetPoint" />
            <Array as="points">
              <mxPoint x="535" y="222" />
            </Array>
          </mxGeometry>
        </mxCell>
        <mxCell id="idhhOFDxXZSViwt3V-x8-19" value="neue Strecke anzeigen" style="html=1;verticalAlign=bottom;endArrow=open;dashed=1;endSize=8;curved=0;rounded=0;" edge="1" parent="1" target="idhhOFDxXZSViwt3V-x8-18">
          <mxGeometry relative="1" as="geometry">
            <mxPoint x="330" y="287" as="sourcePoint" />
            <mxPoint x="230" y="290" as="targetPoint" />
          </mxGeometry>
        </mxCell>
      </root>
    </mxGraphModel>
  </diagram>
</mxfile>
